ISO-10303-21;
HEADER;
FILE_DESCRIPTION (( 'STEP AP203' ),
    '1' );
FILE_NAME ('опрх.468211.010.STEP',
    '2026-09-05T09:21:40',
    ( 'Vladimir' ),
    ( '' ),
    'SwSTEP 2.0',
    'SolidWorks 2025',
    '' );
FILE_SCHEMA (( 'CONFIG_CONTROL_DESIGN' ));
ENDSEC;

DATA;
#1 = CYLINDRICAL_SURFACE ( 'NONE', #473, 3.200000000000008171 ) ;
#2 = AXIS2_PLACEMENT_3D ( 'NONE', #501, #464, #535 ) ;
#3 = AXIS2_PLACEMENT_3D ( 'NONE', #492, #647, #641 ) ;
#4 = APPROVAL_STATUS ( 'not_yet_approved' ) ;
#5 = APPROVAL_DATE_TIME ( #59, #635 ) ;
#6 = DIRECTION ( 'NONE',  ( -0.000000000000000000, -0.000000000000000000, -1.000000000000000000 ) ) ;
#7 = DIRECTION ( 'NONE',  ( 0.000000000000000000, 0.000000000000000000, -1.000000000000000000 ) ) ;
#8 = EDGE_CURVE ( 'NONE', #449, #418, #153, .T. ) ;
#9 = ORIENTED_EDGE ( 'NONE', *, *, #255, .F. ) ;
#10 = DIRECTION ( 'NONE',  ( 0.000000000000000000, -1.000000000000000000, 0.000000000000000000 ) ) ;
#11 = DIRECTION ( 'NONE',  ( -0.000000000000000000, -0.000000000000000000, -1.000000000000000000 ) ) ;
#12 = ORIENTED_EDGE ( 'NONE', *, *, #289, .T. ) ;
#13 = ORIENTED_EDGE ( 'NONE', *, *, #134, .T. ) ;
#14 = EDGE_CURVE ( 'NONE', #557, #449, #67, .T. ) ;
#15 = ADVANCED_FACE ( 'NONE', ( #109 ), #515, .T. ) ;
#16 = CLOSED_SHELL ( 'NONE', ( #419, #48, #429, #103, #254, #599, #634, #269, #638, #199, #431, #139, #453, #456, #170, #358, #167, #15 ) ) ;
#17 = VERTEX_POINT ( 'NONE', #271 ) ;
#18 = LOCAL_TIME ( 14, 21, 40.00000000000000000, #624 ) ;
#19 = DIRECTION ( 'NONE',  ( -0.000000000000000000, -0.000000000000000000, -1.000000000000000000 ) ) ;
#20 = LINE ( 'NONE', #493, #539 ) ;
#21 = ORIENTED_EDGE ( 'NONE', *, *, #339, .F. ) ;
#22 = DATE_AND_TIME ( #230, #356 ) ;
#23 = COORDINATED_UNIVERSAL_TIME_OFFSET ( 5, 0, .AHEAD. ) ;
#24 = CARTESIAN_POINT ( 'NONE',  ( -32.79999999999999716, -32.79999999999999716, 500.0000000000000000 ) ) ;
#25 = AXIS2_PLACEMENT_3D ( 'NONE', #503, #162, #355 ) ;
#26 = FACE_OUTER_BOUND ( 'NONE', #604, .T. ) ;
#27 = ORIENTED_EDGE ( 'NONE', *, *, #29, .F. ) ;
#28 = CALENDAR_DATE ( 2026, 5, 9 ) ;
#29 = EDGE_CURVE ( 'NONE', #519, #284, #234, .T. ) ;
#30 = EDGE_CURVE ( 'NONE', #575, #284, #297, .T. ) ;
#31 = ORIENTED_EDGE ( 'NONE', *, *, #541, .T. ) ;
#32 = CARTESIAN_POINT ( 'NONE',  ( -32.79999999999999716, -36.00000000000000711, 500.0000000000000000 ) ) ;
#33 = AXIS2_PLACEMENT_3D ( 'NONE', #433, #49, #637 ) ;
#34 = AXIS2_PLACEMENT_3D ( 'NONE', #300, #494, #250 ) ;
#35 = ORIENTED_EDGE ( 'NONE', *, *, #441, .T. ) ;
#36 = COORDINATED_UNIVERSAL_TIME_OFFSET ( 5, 0, .AHEAD. ) ;
#37 = DIRECTION ( 'NONE',  ( 0.000000000000000000, -0.000000000000000000, -1.000000000000000000 ) ) ;
#38 = DATE_AND_TIME ( #517, #522 ) ;
#39 = CARTESIAN_POINT ( 'NONE',  ( -36.00000000000000000, -32.79999999999999716, 500.0000000000000000 ) ) ;
#40 = EDGE_CURVE ( 'NONE', #106, #141, #95, .T. ) ;
#41 = ORIENTED_EDGE ( 'NONE', *, *, #437, .F. ) ;
#42 = DIRECTION ( 'NONE',  ( -0.000000000000000000, -0.000000000000000000, -1.000000000000000000 ) ) ;
#43 = CARTESIAN_POINT ( 'NONE',  ( -36.00000000000000711, -32.79999999999999716, 500.0000000000000000 ) ) ;
#44 = DIRECTION ( 'NONE',  ( 0.000000000000000000, 0.000000000000000000, 1.000000000000000000 ) ) ;
#45 = DIRECTION ( 'NONE',  ( -0.000000000000000000, 1.000000000000000000, -0.000000000000000000 ) ) ;
#46 = CIRCLE ( 'NONE', #483, 3.200000000000008171 ) ;
#47 = LINE ( 'NONE', #132, #511 ) ;
#48 = ADVANCED_FACE ( 'NONE', ( #486, #243 ), #424, .F. ) ;
#49 = DIRECTION ( 'NONE',  ( 0.000000000000000000, 0.000000000000000000, 1.000000000000000000 ) ) ;
#50 = CARTESIAN_POINT ( 'NONE',  ( -36.00000000000000711, -32.79999999999999716, 500.0000000000000000 ) ) ;
#51 = CYLINDRICAL_SURFACE ( 'NONE', #614, 3.200000000000011724 ) ;
#52 = DIRECTION ( 'NONE',  ( -0.000000000000000000, -0.000000000000000000, -1.000000000000000000 ) ) ;
#53 = FACE_BOUND ( 'NONE', #509, .T. ) ;
#54 = VECTOR ( 'NONE', #425, 1000.000000000000000 ) ;
#55 = PLANE ( 'NONE',  #362 ) ;
#56 = DIRECTION ( 'NONE',  ( -1.000000000000000000, 0.000000000000000000, 0.000000000000000000 ) ) ;
#57 = ORIENTED_EDGE ( 'NONE', *, *, #441, .F. ) ;
#58 = DIRECTION ( 'NONE',  ( 1.000000000000000000, 0.000000000000000000, 0.000000000000000000 ) ) ;
#59 = DATE_AND_TIME ( #544, #115 ) ;
#60 = CARTESIAN_POINT ( 'NONE',  ( 36.00000000000000000, -32.79999999999999716, 500.0000000000000000 ) ) ;
#61 = ORIENTED_EDGE ( 'NONE', *, *, #338, .T. ) ;
#62 = CYLINDRICAL_SURFACE ( 'NONE', #100, 7.200000000000004619 ) ;
#63 = VECTOR ( 'NONE', #481, 1000.000000000000000 ) ;
#64 = CARTESIAN_POINT ( 'NONE',  ( -36.00000000000000000, -32.79999999999999716, 500.0000000000000000 ) ) ;
#65 = ORIENTED_EDGE ( 'NONE', *, *, #30, .T. ) ;
#66 = LINE ( 'NONE', #261, #223 ) ;
#67 = LINE ( 'NONE', #317, #376 ) ;
#68 = VECTOR ( 'NONE', #252, 1000.000000000000000 ) ;
#69 = LINE ( 'NONE', #173, #645 ) ;
#70 = EDGE_CURVE ( 'NONE', #268, #84, #632, .T. ) ;
#71 = ORIENTED_EDGE ( 'NONE', *, *, #390, .T. ) ;
#72 = ORIENTED_EDGE ( 'NONE', *, *, #73, .F. ) ;
#73 = EDGE_CURVE ( 'NONE', #183, #168, #640, .T. ) ;
#74 = DIRECTION ( 'NONE',  ( -0.000000000000000000, -0.000000000000000000, -1.000000000000000000 ) ) ;
#75 = ORIENTED_EDGE ( 'NONE', *, *, #406, .T. ) ;
#76 = EDGE_CURVE ( 'NONE', #611, #496, #231, .T. ) ;
#77 = DIRECTION ( 'NONE',  ( 0.000000000000000000, -0.000000000000000000, -1.000000000000000000 ) ) ;
#78 = EDGE_LOOP ( 'NONE', ( #176, #9, #112, #600 ) ) ;
#79 = APPROVAL_STATUS ( 'not_yet_approved' ) ;
#80 = EDGE_LOOP ( 'NONE', ( #315, #616, #316, #31 ) ) ;
#81 = AXIS2_PLACEMENT_3D ( 'NONE', #205, #396, #618 ) ;
#82 = ORIENTED_EDGE ( 'NONE', *, *, #329, .T. ) ;
#83 = EDGE_LOOP ( 'NONE', ( #461, #554, #229, #377, #256, #227, #27, #470 ) ) ;
#84 = VERTEX_POINT ( 'NONE', #629 ) ;
#85 = FACE_OUTER_BOUND ( 'NONE', #277, .T. ) ;
#86 = EDGE_CURVE ( 'NONE', #561, #268, #47, .T. ) ;
#87 = CC_DESIGN_APPROVAL ( #603, ( #505 ) ) ;
#88 = LINE ( 'NONE', #133, #63 ) ;
#89 = AXIS2_PLACEMENT_3D ( 'NONE', #387, #444, #393 ) ;
#90 = ORIENTED_EDGE ( 'NONE', *, *, #86, .F. ) ;
#91 = DIRECTION ( 'NONE',  ( -0.000000000000000000, -0.000000000000000000, -1.000000000000000000 ) ) ;
#92 = EDGE_CURVE ( 'NONE', #135, #17, #97, .T. ) ;
#93 = DIRECTION ( 'NONE',  ( 1.000000000000000000, 0.000000000000000000, 0.000000000000000000 ) ) ;
#94 = ORIENTED_EDGE ( 'NONE', *, *, #76, .T. ) ;
#95 = LINE ( 'NONE', #137, #592 ) ;
#96 = CARTESIAN_POINT ( 'NONE',  ( -32.79999999999999716, 32.79999999999998295, 500.0000000000000000 ) ) ;
#97 = LINE ( 'NONE', #241, #200 ) ;
#98 = DIRECTION ( 'NONE',  ( 1.000000000000000000, 0.000000000000000000, 0.000000000000000000 ) ) ;
#99 = LINE ( 'NONE', #130, #450 ) ;
#100 = AXIS2_PLACEMENT_3D ( 'NONE', #350, #224, #467 ) ;
#101 = AXIS2_PLACEMENT_3D ( 'NONE', #621, #606, #469 ) ;
#102 = CC_DESIGN_DATE_AND_TIME_ASSIGNMENT ( #22, #169, ( #416 ) ) ;
#103 = ADVANCED_FACE ( 'NONE', ( #85 ), #430, .F. ) ;
#104 = DIRECTION ( 'NONE',  ( 1.000000000000000000, 0.000000000000000000, 0.000000000000000000 ) ) ;
#105 = CARTESIAN_POINT ( 'NONE',  ( 32.79999999999999716, 32.79999999999998295, 0.000000000000000000 ) ) ;
#106 = VERTEX_POINT ( 'NONE', #180 ) ;
#107 = VECTOR ( 'NONE', #573, 1000.000000000000000 ) ;
#108 = DIRECTION ( 'NONE',  ( -0.000000000000000000, 1.000000000000000000, -0.000000000000000000 ) ) ;
#109 = FACE_OUTER_BOUND ( 'NONE', #251, .T. ) ;
#110 = PERSON_AND_ORGANIZATION ( #460, #558 ) ;
#111 = ORIENTED_EDGE ( 'NONE', *, *, #40, .T. ) ;
#112 = ORIENTED_EDGE ( 'NONE', *, *, #86, .T. ) ;
#113 = DIRECTION ( 'NONE',  ( 1.000000000000000000, 0.000000000000000000, 0.000000000000000000 ) ) ;
#114 = APPLICATION_CONTEXT ( 'configuration controlled 3d designs of mechanical parts and assemblies' ) ;
#115 = LOCAL_TIME ( 14, 21, 40.00000000000000000, #487 ) ;
#116 = VECTOR ( 'NONE', #142, 1000.000000000000000 ) ;
#117 = LINE ( 'NONE', #457, #385 ) ;
#118 = ORIENTED_EDGE ( 'NONE', *, *, #198, .T. ) ;
#119 = ORIENTED_EDGE ( 'NONE', *, *, #248, .T. ) ;
#120 = ORIENTED_EDGE ( 'NONE', *, *, #549, .T. ) ;
#121 = DIRECTION ( 'NONE',  ( -0.000000000000000000, -0.000000000000000000, -1.000000000000000000 ) ) ;
#122 = DESIGN_CONTEXT ( 'detailed design', #190, 'design' ) ;
#123 = LINE ( 'NONE', #263, #484 ) ;
#124 = PERSON_AND_ORGANIZATION_ROLE ( 'design_owner' ) ;
#125 = ORIENTED_EDGE ( 'NONE', *, *, #177, .F. ) ;
#126 = AXIS2_PLACEMENT_3D ( 'NONE', #160, #452, #458 ) ;
#127 = CIRCLE ( 'NONE', #506, 7.200000000000004619 ) ;
#128 = ORIENTED_EDGE ( 'NONE', *, *, #560, .T. ) ;
#129 = APPROVAL_ROLE ( '' ) ;
#130 = CARTESIAN_POINT ( 'NONE',  ( 32.79999999999999716, 39.99999999999999289, 0.000000000000000000 ) ) ;
#131 = EDGE_LOOP ( 'NONE', ( #348, #412, #41, #423 ) ) ;
#132 = CARTESIAN_POINT ( 'NONE',  ( -32.79999999999999716, -36.00000000000000711, 500.0000000000000000 ) ) ;
#133 = CARTESIAN_POINT ( 'NONE',  ( 36.00000000000000000, -32.79999999999999716, 500.0000000000000000 ) ) ;
#134 = EDGE_CURVE ( 'NONE', #570, #371, #374, .T. ) ;
#135 = VERTEX_POINT ( 'NONE', #344 ) ;
#136 = PERSON_AND_ORGANIZATION_ROLE ( 'creator' ) ;
#137 = CARTESIAN_POINT ( 'NONE',  ( 32.79999999999999716, 36.00000000000000711, 500.0000000000000000 ) ) ;
#138 = CARTESIAN_POINT ( 'NONE',  ( -40.00000000000000711, -32.79999999999998295, 500.0000000000000000 ) ) ;
#139 = ADVANCED_FACE ( 'NONE', ( #157 ), #55, .T. ) ;
#140 = FACE_OUTER_BOUND ( 'NONE', #179, .T. ) ;
#141 = VERTEX_POINT ( 'NONE', #499 ) ;
#142 = DIRECTION ( 'NONE',  ( -0.000000000000000000, -0.000000000000000000, -1.000000000000000000 ) ) ;
#143 = PERSON_AND_ORGANIZATION ( #460, #558 ) ;
#144 = CARTESIAN_POINT ( 'NONE',  ( 32.79999999999999716, -40.00000000000000711, 0.000000000000000000 ) ) ;
#145 = CARTESIAN_POINT ( 'NONE',  ( -32.79999999999999716, -36.00000000000000711, 500.0000000000000000 ) ) ;
#146 = AXIS2_PLACEMENT_3D ( 'NONE', #24, #407, #178 ) ;
#147 = CC_DESIGN_PERSON_AND_ORGANIZATION_ASSIGNMENT ( #110, #201, ( #505 ) ) ;
#148 = VECTOR ( 'NONE', #191, 1000.000000000000000 ) ;
#149 = DIRECTION ( 'NONE',  ( 1.000000000000000000, 0.000000000000000000, 0.000000000000000000 ) ) ;
#150 = CARTESIAN_POINT ( 'NONE',  ( 32.79999999999999716, 32.79999999999998295, 500.0000000000000000 ) ) ;
#151 = SECURITY_CLASSIFICATION_LEVEL ( 'unclassified' ) ;
#152 = DIRECTION ( 'NONE',  ( 1.000000000000000000, 0.000000000000000000, 0.000000000000000000 ) ) ;
#153 = CIRCLE ( 'NONE', #448, 7.200000000000004619 ) ;
#154 = APPROVAL ( #563, 'UNSPECIFIED' ) ;
#155 = CC_DESIGN_APPROVAL ( #635, ( #436 ) ) ;
#156 = AXIS2_PLACEMENT_3D ( 'NONE', #411, #546, #104 ) ;
#157 = FACE_OUTER_BOUND ( 'NONE', #463, .T. ) ;
#158 = ORIENTED_EDGE ( 'NONE', *, *, #443, .T. ) ;
#159 = VERTEX_POINT ( 'NONE', #347 ) ;
#160 = CARTESIAN_POINT ( 'NONE',  ( 32.79999999999999005, -32.79999999999999716, 500.0000000000000000 ) ) ;
#161 = ORIENTED_EDGE ( 'NONE', *, *, #390, .F. ) ;
#162 = DIRECTION ( 'NONE',  ( -0.000000000000000000, -0.000000000000000000, -1.000000000000000000 ) ) ;
#163 = DIRECTION ( 'NONE',  ( -1.000000000000000000, 0.000000000000000000, 0.000000000000000000 ) ) ;
#164 = CARTESIAN_POINT ( 'NONE',  ( -40.00000000000000711, -32.79999999999998295, 500.0000000000000000 ) ) ;
#165 = VECTOR ( 'NONE', #533, 1000.000000000000000 ) ;
#166 = EDGE_LOOP ( 'NONE', ( #172, #274, #363, #12 ) ) ;
#167 = ADVANCED_FACE ( 'NONE', ( #304 ), #51, .F. ) ;
#168 = VERTEX_POINT ( 'NONE', #216 ) ;
#169 = DATE_TIME_ROLE ( 'creation_date' ) ;
#170 = ADVANCED_FACE ( 'NONE', ( #308 ), #211, .F. ) ;
#171 = CARTESIAN_POINT ( 'NONE',  ( 40.00000000000000711, -32.79999999999998295, 500.0000000000000000 ) ) ;
#172 = ORIENTED_EDGE ( 'NONE', *, *, #29, .T. ) ;
#173 = CARTESIAN_POINT ( 'NONE',  ( -32.79999999999999716, 39.99999999999999289, 500.0000000000000000 ) ) ;
#174 = ORIENTED_EDGE ( 'NONE', *, *, #518, .T. ) ;
#175 = CIRCLE ( 'NONE', #146, 3.200000000000005063 ) ;
#176 = ORIENTED_EDGE ( 'NONE', *, *, #576, .F. ) ;
#177 = EDGE_CURVE ( 'NONE', #410, #611, #66, .T. ) ;
#178 = DIRECTION ( 'NONE',  ( 1.000000000000000000, 0.000000000000000000, 0.000000000000000000 ) ) ;
#179 = EDGE_LOOP ( 'NONE', ( #161, #623, #552, #94 ) ) ;
#180 = CARTESIAN_POINT ( 'NONE',  ( 32.79999999999999716, 36.00000000000000711, 500.0000000000000000 ) ) ;
#181 = PLANE ( 'NONE',  #345 ) ;
#182 = EDGE_CURVE ( 'NONE', #418, #562, #455, .T. ) ;
#183 = VERTEX_POINT ( 'NONE', #442 ) ;
#184 = CARTESIAN_POINT ( 'NONE',  ( -40.00000000000000711, 32.79999999999998295, 500.0000000000000000 ) ) ;
#185 = LINE ( 'NONE', #272, #398 ) ;
#186 = CIRCLE ( 'NONE', #323, 3.200000000000011724 ) ;
#187 = CARTESIAN_POINT ( 'NONE',  ( 36.00000000000000711, 32.79999999999999716, 500.0000000000000000 ) ) ;
#188 = CARTESIAN_POINT ( 'NONE',  ( 36.00000000000000000, -32.79999999999999716, 0.000000000000000000 ) ) ;
#189 = APPLICATION_PROTOCOL_DEFINITION ( 'international standard', 'config_control_design', 1994, #114 ) ;
#190 = APPLICATION_CONTEXT ( 'configuration controlled 3d designs of mechanical parts and assemblies' ) ;
#191 = DIRECTION ( 'NONE',  ( -0.000000000000000000, -1.000000000000000000, -0.000000000000000000 ) ) ;
#192 = DIRECTION ( 'NONE',  ( -0.000000000000000000, -0.000000000000000000, -1.000000000000000000 ) ) ;
#193 = VECTOR ( 'NONE', #149, 1000.000000000000000 ) ;
#194 = AXIS2_PLACEMENT_3D ( 'NONE', #145, #547, #440 ) ;
#195 = EDGE_CURVE ( 'NONE', #575, #570, #392, .T. ) ;
#196 = FACE_OUTER_BOUND ( 'NONE', #500, .T. ) ;
#197 = CARTESIAN_POINT ( 'NONE',  ( 32.79999999999999716, 36.00000000000000711, 500.0000000000000000 ) ) ;
#198 = EDGE_CURVE ( 'NONE', #135, #557, #646, .T. ) ;
#199 = ADVANCED_FACE ( 'NONE', ( #196 ), #651, .F. ) ;
#200 = VECTOR ( 'NONE', #530, 1000.000000000000000 ) ;
#201 = PERSON_AND_ORGANIZATION_ROLE ( 'creator' ) ;
#202 = CARTESIAN_POINT ( 'NONE',  ( -32.79999999999999716, 32.79999999999998295, 0.000000000000000000 ) ) ;
#203 = CARTESIAN_POINT ( 'NONE',  ( 40.00000000000000711, -32.79999999999998295, 0.000000000000000000 ) ) ;
#204 = ORIENTED_EDGE ( 'NONE', *, *, #465, .F. ) ;
#205 = CARTESIAN_POINT ( 'NONE',  ( 32.79999999999999005, -32.79999999999999716, 500.0000000000000000 ) ) ;
#206 = VECTOR ( 'NONE', #380, 1000.000000000000000 ) ;
#207 = CARTESIAN_POINT ( 'NONE',  ( -32.79999999999999716, 32.79999999999998295, 500.0000000000000000 ) ) ;
#208 = VECTOR ( 'NONE', #536, 1000.000000000000000 ) ;
#209 = AXIS2_PLACEMENT_3D ( 'NONE', #491, #295, #639 ) ;
#210 = CARTESIAN_POINT ( 'NONE',  ( 32.79999999999999716, 32.79999999999998295, 500.0000000000000000 ) ) ;
#211 = CYLINDRICAL_SURFACE ( 'NONE', #25, 3.200000000000008171 ) ;
#212 = EDGE_CURVE ( 'NONE', #402, #183, #186, .T. ) ;
#213 = DIRECTION ( 'NONE',  ( 1.000000000000000000, 0.000000000000000000, -0.000000000000000000 ) ) ;
#214 =( LENGTH_UNIT ( ) NAMED_UNIT ( * ) SI_UNIT ( .MILLI., .METRE. ) );
#215 = ORIENTED_EDGE ( 'NONE', *, *, #195, .T. ) ;
#216 = CARTESIAN_POINT ( 'NONE',  ( -36.00000000000000711, -32.79999999999999716, 0.000000000000000000 ) ) ;
#217 = CC_DESIGN_PERSON_AND_ORGANIZATION_ASSIGNMENT ( #475, #136, ( #416 ) ) ;
#218 = ORIENTED_EDGE ( 'NONE', *, *, #182, .T. ) ;
#219 = CARTESIAN_POINT ( 'NONE',  ( 32.79999999999999005, -32.79999999999999716, 0.000000000000000000 ) ) ;
#220 =( NAMED_UNIT ( * ) PLANE_ANGLE_UNIT ( ) SI_UNIT ( $, .RADIAN. ) );
#221 = ORIENTED_EDGE ( 'NONE', *, *, #14, .F. ) ;
#222 = ORIENTED_EDGE ( 'NONE', *, *, #212, .F. ) ;
#223 = VECTOR ( 'NONE', #108, 1000.000000000000000 ) ;
#224 = DIRECTION ( 'NONE',  ( -0.000000000000000000, -0.000000000000000000, -1.000000000000000000 ) ) ;
#225 = ORIENTED_EDGE ( 'NONE', *, *, #549, .F. ) ;
#226 = EDGE_CURVE ( 'NONE', #562, #359, #550, .T. ) ;
#227 = ORIENTED_EDGE ( 'NONE', *, *, #285, .F. ) ;
#228 = AXIS2_PLACEMENT_3D ( 'NONE', #427, #381, #98 ) ;
#229 = ORIENTED_EDGE ( 'NONE', *, *, #8, .F. ) ;
#230 = CALENDAR_DATE ( 2026, 5, 9 ) ;
#231 = LINE ( 'NONE', #187, #107 ) ;
#232 = ORIENTED_EDGE ( 'NONE', *, *, #541, .F. ) ;
#233 = CC_DESIGN_PERSON_AND_ORGANIZATION_ASSIGNMENT ( #400, #590, ( #505 ) ) ;
#234 = CIRCLE ( 'NONE', #2, 7.200000000000011724 ) ;
#235 = DIRECTION ( 'NONE',  ( 1.000000000000000000, 0.000000000000000000, -0.000000000000000000 ) ) ;
#236 = LOCAL_TIME ( 14, 21, 40.00000000000000000, #23 ) ;
#237 = AXIS2_PLACEMENT_3D ( 'NONE', #245, #602, #351 ) ;
#238 = CARTESIAN_POINT ( 'NONE',  ( 32.79999999999999716, 32.79999999999998295, 0.000000000000000000 ) ) ;
#239 = ADVANCED_BREP_SHAPE_REPRESENTATION ( '\X2\041f042004220418\X0\.468211.010', ( #478, #156 ), #409 ) ;
#240 = DIRECTION ( 'NONE',  ( -0.000000000000000000, -1.000000000000000000, -0.000000000000000000 ) ) ;
#241 = CARTESIAN_POINT ( 'NONE',  ( -32.79999999999999716, -39.99999999999999289, 500.0000000000000000 ) ) ;
#242 = DIRECTION ( 'NONE',  ( 1.000000000000000000, 0.000000000000000000, 0.000000000000000000 ) ) ;
#243 = FACE_BOUND ( 'NONE', #525, .T. ) ;
#244 = CARTESIAN_POINT ( 'NONE',  ( 32.79999999999999005, -32.79999999999999716, 500.0000000000000000 ) ) ;
#245 = CARTESIAN_POINT ( 'NONE',  ( -32.79999999999999716, -32.79999999999999716, 500.0000000000000000 ) ) ;
#246 = DIRECTION ( 'NONE',  ( -1.000000000000000000, 0.000000000000000000, 0.000000000000000000 ) ) ;
#247 = CYLINDRICAL_SURFACE ( 'NONE', #569, 3.200000000000008171 ) ;
#248 = EDGE_CURVE ( 'NONE', #268, #410, #346, .T. ) ;
#249 = DIRECTION ( 'NONE',  ( 0.000000000000000000, 0.000000000000000000, 1.000000000000000000 ) ) ;
#250 = DIRECTION ( 'NONE',  ( 0.000000000000000000, 0.000000000000000000, 1.000000000000000000 ) ) ;
#251 = EDGE_LOOP ( 'NONE', ( #531, #373, #111, #349 ) ) ;
#252 = DIRECTION ( 'NONE',  ( -0.000000000000000000, -1.000000000000000000, -0.000000000000000000 ) ) ;
#253 = PLANE ( 'NONE',  #336 ) ;
#254 = ADVANCED_FACE ( 'NONE', ( #414 ), #370, .T. ) ;
#255 = EDGE_CURVE ( 'NONE', #561, #364, #270, .T. ) ;
#256 = ORIENTED_EDGE ( 'NONE', *, *, #383, .F. ) ;
#257 = CARTESIAN_POINT ( 'NONE',  ( 32.79999999999999716, 32.79999999999998295, 500.0000000000000000 ) ) ;
#258 = VECTOR ( 'NONE', #192, 1000.000000000000000 ) ;
#259 = CIRCLE ( 'NONE', #89, 7.200000000000004619 ) ;
#260 = ORIENTED_EDGE ( 'NONE', *, *, #324, .T. ) ;
#261 = CARTESIAN_POINT ( 'NONE',  ( 36.00000000000000000, 32.79999999999999716, 500.0000000000000000 ) ) ;
#262 = DIRECTION ( 'NONE',  ( -0.000000000000000000, -0.000000000000000000, -1.000000000000000000 ) ) ;
#263 = CARTESIAN_POINT ( 'NONE',  ( -36.00000000000000000, 32.79999999999999716, 500.0000000000000000 ) ) ;
#264 = CYLINDRICAL_SURFACE ( 'NONE', #126, 7.200000000000008171 ) ;
#265 = ORIENTED_EDGE ( 'NONE', *, *, #369, .T. ) ;
#266 = ORIENTED_EDGE ( 'NONE', *, *, #610, .F. ) ;
#267 = LINE ( 'NONE', #275, #312 ) ;
#268 = VERTEX_POINT ( 'NONE', #612 ) ;
#269 = ADVANCED_FACE ( 'NONE', ( #609 ), #555, .F. ) ;
#270 = LINE ( 'NONE', #32, #399 ) ;
#271 = CARTESIAN_POINT ( 'NONE',  ( -32.79999999999999716, -39.99999999999999289, 0.000000000000000000 ) ) ;
#272 = CARTESIAN_POINT ( 'NONE',  ( 40.00000000000000711, -32.79999999999998295, 500.0000000000000000 ) ) ;
#273 = EDGE_LOOP ( 'NONE', ( #360, #302, #510, #420 ) ) ;
#274 = ORIENTED_EDGE ( 'NONE', *, *, #30, .F. ) ;
#275 = CARTESIAN_POINT ( 'NONE',  ( 32.79999999999999716, 39.99999999999999289, 500.0000000000000000 ) ) ;
#276 = EDGE_LOOP ( 'NONE', ( #326, #628, #279, #65 ) ) ;
#277 = EDGE_LOOP ( 'NONE', ( #352, #320, #472, #260 ) ) ;
#278 = EDGE_CURVE ( 'NONE', #611, #106, #367, .T. ) ;
#279 = ORIENTED_EDGE ( 'NONE', *, *, #195, .F. ) ;
#280 = CC_DESIGN_APPROVAL ( #154, ( #416 ) ) ;
#281 = CARTESIAN_POINT ( 'NONE',  ( 32.79999999999999716, -36.00000000000000711, 500.0000000000000000 ) ) ;
#282 = AXIS2_PLACEMENT_3D ( 'NONE', #314, #571, #527 ) ;
#283 = CARTESIAN_POINT ( 'NONE',  ( 40.00000000000000711, 32.79999999999998295, 0.000000000000000000 ) ) ;
#284 = VERTEX_POINT ( 'NONE', #613 ) ;
#285 = EDGE_CURVE ( 'NONE', #284, #371, #310, .T. ) ;
#286 = AXIS2_PLACEMENT_3D ( 'NONE', #476, #636, #37 ) ;
#287 = DIRECTION ( 'NONE',  ( 0.000000000000000000, 0.000000000000000000, -1.000000000000000000 ) ) ;
#288 = ORIENTED_EDGE ( 'NONE', *, *, #70, .F. ) ;
#289 = EDGE_CURVE ( 'NONE', #365, #519, #69, .T. ) ;
#290 = CARTESIAN_POINT ( 'NONE',  ( 32.79999999999999716, -40.00000000000000711, 500.0000000000000000 ) ) ;
#291 = CIRCLE ( 'NONE', #3, 3.200000000000008171 ) ;
#292 = DIRECTION ( 'NONE',  ( 0.000000000000000000, 0.000000000000000000, 1.000000000000000000 ) ) ;
#293 = CARTESIAN_POINT ( 'NONE',  ( -40.00000000000000711, 32.79999999999998295, 500.0000000000000000 ) ) ;
#294 = PRODUCT_DEFINITION_SHAPE ( 'NONE', 'NONE',  #416 ) ;
#295 = DIRECTION ( 'NONE',  ( -1.000000000000000000, 0.000000000000000000, 0.000000000000000000 ) ) ;
#296 = MECHANICAL_CONTEXT ( 'NONE', #114, 'mechanical' ) ;
#297 = LINE ( 'NONE', #184, #482 ) ;
#298 = LINE ( 'NONE', #489, #258 ) ;
#299 = DIRECTION ( 'NONE',  ( 1.000000000000000000, 0.000000000000000000, 0.000000000000000000 ) ) ;
#300 = CARTESIAN_POINT ( 'NONE',  ( 40.00000000000000711, 32.79999999999998295, 500.0000000000000000 ) ) ;
#301 = PRODUCT ( '\X2\041f042004220418\X0\.468211.010', '\X2\041f042004220418\X0\.468211.010', '', ( #296 ) ) ;
#302 = ORIENTED_EDGE ( 'NONE', *, *, #76, .F. ) ;
#303 = APPLICATION_PROTOCOL_DEFINITION ( 'international standard', 'config_control_design', 1994, #190 ) ;
#304 = FACE_OUTER_BOUND ( 'NONE', #273, .T. ) ;
#305 = ORIENTED_EDGE ( 'NONE', *, *, #212, .T. ) ;
#306 = CARTESIAN_POINT ( 'NONE',  ( 32.79999999999999716, 36.00000000000000711, 500.0000000000000000 ) ) ;
#307 = CARTESIAN_POINT ( 'NONE',  ( 32.79999999999999716, 32.79999999999998295, 500.0000000000000000 ) ) ;
#308 = FACE_OUTER_BOUND ( 'NONE', #607, .T. ) ;
#309 = ORIENTED_EDGE ( 'NONE', *, *, #248, .F. ) ;
#310 = LINE ( 'NONE', #507, #559 ) ;
#311 = EDGE_CURVE ( 'NONE', #594, #183, #123, .T. ) ;
#312 = VECTOR ( 'NONE', #462, 1000.000000000000000 ) ;
#313 = ORIENTED_EDGE ( 'NONE', *, *, #92, .T. ) ;
#314 = CARTESIAN_POINT ( 'NONE',  ( -32.79999999999999716, 32.79999999999998295, 500.0000000000000000 ) ) ;
#315 = ORIENTED_EDGE ( 'NONE', *, *, #226, .T. ) ;
#316 = ORIENTED_EDGE ( 'NONE', *, *, #406, .F. ) ;
#317 = CARTESIAN_POINT ( 'NONE',  ( 32.79999999999999716, -40.00000000000000711, 500.0000000000000000 ) ) ;
#318 = CC_DESIGN_DATE_AND_TIME_ASSIGNMENT ( #38, #375, ( #436 ) ) ;
#319 = CARTESIAN_POINT ( 'NONE',  ( 32.79999999999999716, 36.00000000000000711, 0.000000000000000000 ) ) ;
#320 = ORIENTED_EDGE ( 'NONE', *, *, #289, .F. ) ;
#321 = CIRCLE ( 'NONE', #228, 3.200000000000005063 ) ;
#322 = ORIENTED_EDGE ( 'NONE', *, *, #40, .F. ) ;
#323 = AXIS2_PLACEMENT_3D ( 'NONE', #202, #591, #152 ) ;
#324 = EDGE_CURVE ( 'NONE', #159, #359, #117, .T. ) ;
#325 = VERTEX_POINT ( 'NONE', #171 ) ;
#326 = ORIENTED_EDGE ( 'NONE', *, *, #285, .T. ) ;
#327 = CC_DESIGN_PERSON_AND_ORGANIZATION_ASSIGNMENT ( #343, #361, ( #436 ) ) ;
#328 = CARTESIAN_POINT ( 'NONE',  ( -32.79999999999999716, -36.00000000000000711, 500.0000000000000000 ) ) ;
#329 = EDGE_CURVE ( 'NONE', #159, #365, #267, .T. ) ;
#330 = ORIENTED_EDGE ( 'NONE', *, *, #92, .F. ) ;
#331 = ORIENTED_EDGE ( 'NONE', *, *, #579, .T. ) ;
#332 = DIRECTION ( 'NONE',  ( 1.000000000000000000, 0.000000000000000000, 0.000000000000000000 ) ) ;
#333 = LINE ( 'NONE', #545, #426 ) ;
#334 = DIRECTION ( 'NONE',  ( 0.000000000000000000, 0.000000000000000000, 1.000000000000000000 ) ) ;
#335 = APPROVAL_PERSON_ORGANIZATION ( #353, #603, #608 ) ;
#336 = AXIS2_PLACEMENT_3D ( 'NONE', #257, #249, #213 ) ;
#337 = CARTESIAN_POINT ( 'NONE',  ( -32.79999999999999716, -32.79999999999999716, 500.0000000000000000 ) ) ;
#338 = EDGE_CURVE ( 'NONE', #368, #561, #175, .T. ) ;
#339 = EDGE_CURVE ( 'NONE', #141, #402, #580, .T. ) ;
#340 = DIRECTION ( 'NONE',  ( 0.000000000000000000, 0.000000000000000000, 1.000000000000000000 ) ) ;
#341 = CARTESIAN_POINT ( 'NONE',  ( -32.79999999999999716, 39.99999999999999289, 0.000000000000000000 ) ) ;
#342 = DIRECTION ( 'NONE',  ( -1.000000000000000000, 0.000000000000000000, 0.000000000000000000 ) ) ;
#343 = PERSON_AND_ORGANIZATION ( #460, #558 ) ;
#344 = CARTESIAN_POINT ( 'NONE',  ( -32.79999999999999716, -39.99999999999999289, 500.0000000000000000 ) ) ;
#345 = AXIS2_PLACEMENT_3D ( 'NONE', #138, #93, #287 ) ;
#346 = CIRCLE ( 'NONE', #81, 3.200000000000008171 ) ;
#347 = CARTESIAN_POINT ( 'NONE',  ( 32.79999999999999716, 39.99999999999999289, 500.0000000000000000 ) ) ;
#348 = ORIENTED_EDGE ( 'NONE', *, *, #8, .T. ) ;
#349 = ORIENTED_EDGE ( 'NONE', *, *, #339, .T. ) ;
#350 = CARTESIAN_POINT ( 'NONE',  ( -32.79999999999999716, -32.79999999999999716, 500.0000000000000000 ) ) ;
#351 = DIRECTION ( 'NONE',  ( 1.000000000000000000, 0.000000000000000000, 0.000000000000000000 ) ) ;
#352 = ORIENTED_EDGE ( 'NONE', *, *, #553, .T. ) ;
#353 = PERSON_AND_ORGANIZATION ( #460, #558 ) ;
#354 = UNCERTAINTY_MEASURE_WITH_UNIT (LENGTH_MEASURE( 1.000000000000000082E-05 ), #214, 'distance_accuracy_value', 'NONE');
#355 = DIRECTION ( 'NONE',  ( -1.000000000000000000, 0.000000000000000000, 0.000000000000000000 ) ) ;
#356 = LOCAL_TIME ( 14, 21, 40.00000000000000000, #36 ) ;
#357 = AXIS2_PLACEMENT_3D ( 'NONE', #307, #498, #551 ) ;
#358 = ADVANCED_FACE ( 'NONE', ( #140 ), #382, .T. ) ;
#359 = VERTEX_POINT ( 'NONE', #584 ) ;
#360 = ORIENTED_EDGE ( 'NONE', *, *, #520, .F. ) ;
#361 = PERSON_AND_ORGANIZATION_ROLE ( 'classification_officer' ) ;
#362 = AXIS2_PLACEMENT_3D ( 'NONE', #64, #587, #7 ) ;
#363 = ORIENTED_EDGE ( 'NONE', *, *, #443, .F. ) ;
#364 = VERTEX_POINT ( 'NONE', #543 ) ;
#365 = VERTEX_POINT ( 'NONE', #372 ) ;
#366 = CARTESIAN_POINT ( 'NONE',  ( 32.79999999999999716, 32.79999999999998295, 500.0000000000000000 ) ) ;
#367 = CIRCLE ( 'NONE', #451, 3.200000000000008171 ) ;
#368 = VERTEX_POINT ( 'NONE', #50 ) ;
#369 = EDGE_CURVE ( 'NONE', #570, #135, #438, .T. ) ;
#370 = CYLINDRICAL_SURFACE ( 'NONE', #282, 7.200000000000011724 ) ;
#371 = VERTEX_POINT ( 'NONE', #644 ) ;
#372 = CARTESIAN_POINT ( 'NONE',  ( -32.79999999999999716, 39.99999999999999289, 500.0000000000000000 ) ) ;
#373 = ORIENTED_EDGE ( 'NONE', *, *, #513, .F. ) ;
#374 = LINE ( 'NONE', #577, #650 ) ;
#375 = DATE_TIME_ROLE ( 'classification_date' ) ;
#376 = VECTOR ( 'NONE', #262, 1000.000000000000000 ) ;
#377 = ORIENTED_EDGE ( 'NONE', *, *, #518, .F. ) ;
#378 = CC_DESIGN_SECURITY_CLASSIFICATION ( #436, ( #505 ) ) ;
#379 = CARTESIAN_POINT ( 'NONE',  ( -40.00000000000000000, -32.79999999999998295, 500.0000000000000000 ) ) ;
#380 = DIRECTION ( 'NONE',  ( -0.000000000000000000, -0.000000000000000000, -1.000000000000000000 ) ) ;
#381 = DIRECTION ( 'NONE',  ( 0.000000000000000000, 0.000000000000000000, 1.000000000000000000 ) ) ;
#382 = PLANE ( 'NONE',  #209 ) ;
#383 = EDGE_CURVE ( 'NONE', #371, #17, #259, .T. ) ;
#384 = VECTOR ( 'NONE', #163, 1000.000000000000000 ) ;
#385 = VECTOR ( 'NONE', #11, 1000.000000000000000 ) ;
#386 = CARTESIAN_POINT ( 'NONE',  ( 36.00000000000000711, 32.79999999999999716, 0.000000000000000000 ) ) ;
#387 = CARTESIAN_POINT ( 'NONE',  ( -32.79999999999999716, -32.79999999999999716, 0.000000000000000000 ) ) ;
#388 = DIRECTION ( 'NONE',  ( 1.000000000000000000, 0.000000000000000000, 0.000000000000000000 ) ) ;
#389 = LINE ( 'NONE', #589, #193 ) ;
#390 = EDGE_CURVE ( 'NONE', #502, #496, #20, .T. ) ;
#391 = CYLINDRICAL_SURFACE ( 'NONE', #417, 7.200000000000011724 ) ;
#392 = LINE ( 'NONE', #164, #68 ) ;
#393 = DIRECTION ( 'NONE',  ( 1.000000000000000000, 0.000000000000000000, 0.000000000000000000 ) ) ;
#394 = AXIS2_PLACEMENT_3D ( 'NONE', #485, #44, #235 ) ;
#395 = ORIENTED_EDGE ( 'NONE', *, *, #610, .T. ) ;
#396 = DIRECTION ( 'NONE',  ( 0.000000000000000000, 0.000000000000000000, 1.000000000000000000 ) ) ;
#397 = VERTEX_POINT ( 'NONE', #652 ) ;
#398 = VECTOR ( 'NONE', #6, 1000.000000000000000 ) ;
#399 = VECTOR ( 'NONE', #121, 1000.000000000000000 ) ;
#400 = PERSON_AND_ORGANIZATION ( #460, #558 ) ;
#401 = EDGE_LOOP ( 'NONE', ( #174, #221, #403, #313 ) ) ;
#402 = VERTEX_POINT ( 'NONE', #542 ) ;
#403 = ORIENTED_EDGE ( 'NONE', *, *, #198, .F. ) ;
#404 = CARTESIAN_POINT ( 'NONE',  ( 40.00000000000000711, 32.79999999999998295, 0.000000000000000000 ) ) ;
#405 = ORIENTED_EDGE ( 'NONE', *, *, #383, .T. ) ;
#406 = EDGE_CURVE ( 'NONE', #454, #159, #622, .T. ) ;
#407 = DIRECTION ( 'NONE',  ( 0.000000000000000000, 0.000000000000000000, 1.000000000000000000 ) ) ;
#408 = PERSON_AND_ORGANIZATION ( #460, #558 ) ;
#409 =( GEOMETRIC_REPRESENTATION_CONTEXT ( 3 ) GLOBAL_UNCERTAINTY_ASSIGNED_CONTEXT ( ( #354 ) ) GLOBAL_UNIT_ASSIGNED_CONTEXT ( ( #214, #220, #512 ) ) REPRESENTATION_CONTEXT ( 'NONE', 'WORKASPACE' ) );
#410 = VERTEX_POINT ( 'NONE', #60 ) ;
#411 = CARTESIAN_POINT ( 'NONE',  ( 0.000000000000000000, 0.000000000000000000, 0.000000000000000000 ) ) ;
#412 = ORIENTED_EDGE ( 'NONE', *, *, #620, .F. ) ;
#413 = EDGE_LOOP ( 'NONE', ( #222, #21, #120, #468 ) ) ;
#414 = FACE_OUTER_BOUND ( 'NONE', #166, .T. ) ;
#415 = LINE ( 'NONE', #39, #643 ) ;
#416 = PRODUCT_DEFINITION ( 'UNKNOWN', '', #505, #122 ) ;
#417 = AXIS2_PLACEMENT_3D ( 'NONE', #150, #447, #342 ) ;
#418 = VERTEX_POINT ( 'NONE', #203 ) ;
#419 = ADVANCED_FACE ( 'NONE', ( #434, #53 ), #253, .T. ) ;
#420 = ORIENTED_EDGE ( 'NONE', *, *, #513, .T. ) ;
#421 = CARTESIAN_POINT ( 'NONE',  ( -36.00000000000000000, -32.79999999999999716, 0.000000000000000000 ) ) ;
#422 = CARTESIAN_POINT ( 'NONE',  ( -36.00000000000000000, 32.79999999999999716, 500.0000000000000000 ) ) ;
#423 = ORIENTED_EDGE ( 'NONE', *, *, #14, .T. ) ;
#424 = PLANE ( 'NONE',  #394 ) ;
#425 = DIRECTION ( 'NONE',  ( -0.000000000000000000, -0.000000000000000000, -1.000000000000000000 ) ) ;
#426 = VECTOR ( 'NONE', #45, 1000.000000000000000 ) ;
#427 = CARTESIAN_POINT ( 'NONE',  ( -32.79999999999999716, -32.79999999999999716, 0.000000000000000000 ) ) ;
#428 = FACE_OUTER_BOUND ( 'NONE', #276, .T. ) ;
#429 = ADVANCED_FACE ( 'NONE', ( #648 ), #391, .T. ) ;
#430 = PLANE ( 'NONE',  #286 ) ;
#431 = ADVANCED_FACE ( 'NONE', ( #548 ), #1, .F. ) ;
#432 = FACE_OUTER_BOUND ( 'NONE', #474, .T. ) ;
#433 = CARTESIAN_POINT ( 'NONE',  ( -32.79999999999999716, 32.79999999999998295, 500.0000000000000000 ) ) ;
#434 = FACE_OUTER_BOUND ( 'NONE', #445, .T. ) ;
#435 = CC_DESIGN_PERSON_AND_ORGANIZATION_ASSIGNMENT ( #585, #124, ( #301 ) ) ;
#436 = SECURITY_CLASSIFICATION ( '', '', #151 ) ;
#437 = EDGE_CURVE ( 'NONE', #557, #325, #127, .T. ) ;
#438 = CIRCLE ( 'NONE', #237, 7.200000000000004619 ) ;
#439 = SHAPE_DEFINITION_REPRESENTATION ( #294, #239 ) ;
#440 = DIRECTION ( 'NONE',  ( 0.000000000000000000, -0.000000000000000000, 1.000000000000000000 ) ) ;
#441 = EDGE_CURVE ( 'NONE', #168, #364, #321, .T. ) ;
#442 = CARTESIAN_POINT ( 'NONE',  ( -36.00000000000000000, 32.79999999999999716, 0.000000000000000000 ) ) ;
#443 = EDGE_CURVE ( 'NONE', #365, #575, #586, .T. ) ;
#444 = DIRECTION ( 'NONE',  ( 0.000000000000000000, 0.000000000000000000, 1.000000000000000000 ) ) ;
#445 = EDGE_LOOP ( 'NONE', ( #75, #82, #158, #215, #265, #118, #625, #572 ) ) ;
#446 = CARTESIAN_POINT ( 'NONE',  ( -32.79999999999999716, -39.99999999999999289, 500.0000000000000000 ) ) ;
#447 = DIRECTION ( 'NONE',  ( -0.000000000000000000, -0.000000000000000000, -1.000000000000000000 ) ) ;
#448 = AXIS2_PLACEMENT_3D ( 'NONE', #219, #595, #504 ) ;
#449 = VERTEX_POINT ( 'NONE', #144 ) ;
#450 = VECTOR ( 'NONE', #537, 1000.000000000000000 ) ;
#451 = AXIS2_PLACEMENT_3D ( 'NONE', #366, #516, #113 ) ;
#452 = DIRECTION ( 'NONE',  ( -0.000000000000000000, -0.000000000000000000, -1.000000000000000000 ) ) ;
#453 = ADVANCED_FACE ( 'NONE', ( #432 ), #247, .F. ) ;
#454 = VERTEX_POINT ( 'NONE', #540 ) ;
#455 = LINE ( 'NONE', #404, #596 ) ;
#456 = ADVANCED_FACE ( 'NONE', ( #581 ), #633, .T. ) ;
#457 = CARTESIAN_POINT ( 'NONE',  ( 32.79999999999999716, 39.99999999999999289, 500.0000000000000000 ) ) ;
#458 = DIRECTION ( 'NONE',  ( -1.000000000000000000, 0.000000000000000000, 0.000000000000000000 ) ) ;
#459 = ORIENTED_EDGE ( 'NONE', *, *, #338, .F. ) ;
#460 = PERSON ( 'UNSPECIFIED', 'UNSPECIFIED', 'UNSPECIFIED', ('UNSPECIFIED'), ('UNSPECIFIED'), ('UNSPECIFIED') ) ;
#461 = ORIENTED_EDGE ( 'NONE', *, *, #226, .F. ) ;
#462 = DIRECTION ( 'NONE',  ( -1.000000000000000000, 0.000000000000000000, 0.000000000000000000 ) ) ;
#463 = EDGE_LOOP ( 'NONE', ( #72, #526, #331, #395 ) ) ;
#464 = DIRECTION ( 'NONE',  ( 0.000000000000000000, 0.000000000000000000, 1.000000000000000000 ) ) ;
#465 = EDGE_CURVE ( 'NONE', #84, #502, #291, .T. ) ;
#466 = EDGE_CURVE ( 'NONE', #325, #454, #333, .T. ) ;
#467 = DIRECTION ( 'NONE',  ( -1.000000000000000000, 0.000000000000000000, 0.000000000000000000 ) ) ;
#468 = ORIENTED_EDGE ( 'NONE', *, *, #311, .T. ) ;
#469 = DIRECTION ( 'NONE',  ( 0.000000000000000000, -0.000000000000000000, 1.000000000000000000 ) ) ;
#470 = ORIENTED_EDGE ( 'NONE', *, *, #553, .F. ) ;
#471 = CALENDAR_DATE ( 2026, 5, 9 ) ;
#472 = ORIENTED_EDGE ( 'NONE', *, *, #329, .F. ) ;
#473 = AXIS2_PLACEMENT_3D ( 'NONE', #207, #495, #56 ) ;
#474 = EDGE_LOOP ( 'NONE', ( #57, #266, #61, #534 ) ) ;
#475 = PERSON_AND_ORGANIZATION ( #460, #558 ) ;
#476 = CARTESIAN_POINT ( 'NONE',  ( 32.79999999999999716, 39.99999999999999289, 500.0000000000000000 ) ) ;
#477 = CARTESIAN_POINT ( 'NONE',  ( -32.79999999999999716, -36.00000000000000711, 0.000000000000000000 ) ) ;
#478 = MANIFOLD_SOLID_BREP ( '\X2\0411043e0431044b0448043a0430\X0\-\X2\0412044b0442044f043d04430442044c\X0\1', #16 ) ;
#479 = ORIENTED_EDGE ( 'NONE', *, *, #465, .T. ) ;
#480 = LINE ( 'NONE', #43, #54 ) ;
#481 = DIRECTION ( 'NONE',  ( -0.000000000000000000, -0.000000000000000000, -1.000000000000000000 ) ) ;
#482 = VECTOR ( 'NONE', #42, 1000.000000000000000 ) ;
#483 = AXIS2_PLACEMENT_3D ( 'NONE', #238, #292, #242 ) ;
#484 = VECTOR ( 'NONE', #19, 1000.000000000000000 ) ;
#485 = CARTESIAN_POINT ( 'NONE',  ( 32.79999999999999716, 32.79999999999998295, 0.000000000000000000 ) ) ;
#486 = FACE_OUTER_BOUND ( 'NONE', #83, .T. ) ;
#487 = COORDINATED_UNIVERSAL_TIME_OFFSET ( 5, 0, .AHEAD. ) ;
#488 = DIRECTION ( 'NONE',  ( -1.000000000000000000, 0.000000000000000000, 0.000000000000000000 ) ) ;
#489 = CARTESIAN_POINT ( 'NONE',  ( 40.00000000000000711, 32.79999999999998295, 500.0000000000000000 ) ) ;
#490 = PRODUCT_RELATED_PRODUCT_CATEGORY ( 'detail', '', ( #301 ) ) ;
#491 = CARTESIAN_POINT ( 'NONE',  ( 36.00000000000000000, 32.79999999999999716, 500.0000000000000000 ) ) ;
#492 = CARTESIAN_POINT ( 'NONE',  ( 32.79999999999999005, -32.79999999999999716, 0.000000000000000000 ) ) ;
#493 = CARTESIAN_POINT ( 'NONE',  ( 36.00000000000000000, 32.79999999999999716, 0.000000000000000000 ) ) ;
#494 = DIRECTION ( 'NONE',  ( -1.000000000000000000, 0.000000000000000000, 0.000000000000000000 ) ) ;
#495 = DIRECTION ( 'NONE',  ( -0.000000000000000000, -0.000000000000000000, -1.000000000000000000 ) ) ;
#496 = VERTEX_POINT ( 'NONE', #386 ) ;
#497 = DIRECTION ( 'NONE',  ( 0.000000000000000000, 0.000000000000000000, 1.000000000000000000 ) ) ;
#498 = DIRECTION ( 'NONE',  ( 0.000000000000000000, 0.000000000000000000, 1.000000000000000000 ) ) ;
#499 = CARTESIAN_POINT ( 'NONE',  ( -32.79999999999999716, 36.00000000000000711, 500.0000000000000000 ) ) ;
#500 = EDGE_LOOP ( 'NONE', ( #218, #232, #556, #615 ) ) ;
#501 = CARTESIAN_POINT ( 'NONE',  ( -32.79999999999999716, 32.79999999999998295, 0.000000000000000000 ) ) ;
#502 = VERTEX_POINT ( 'NONE', #188 ) ;
#503 = CARTESIAN_POINT ( 'NONE',  ( 32.79999999999999005, -32.79999999999999716, 500.0000000000000000 ) ) ;
#504 = DIRECTION ( 'NONE',  ( 1.000000000000000000, 0.000000000000000000, 0.000000000000000000 ) ) ;
#505 = PRODUCT_DEFINITION_FORMATION_WITH_SPECIFIED_SOURCE ( 'ANY', '', #301, .NOT_KNOWN. ) ;
#506 = AXIS2_PLACEMENT_3D ( 'NONE', #244, #340, #299 ) ;
#507 = CARTESIAN_POINT ( 'NONE',  ( -40.00000000000000711, -32.79999999999998295, 0.000000000000000000 ) ) ;
#508 = VECTOR ( 'NONE', #388, 1000.000000000000000 ) ;
#509 = EDGE_LOOP ( 'NONE', ( #565, #225, #322, #514, #125, #309, #90, #459 ) ) ;
#510 = ORIENTED_EDGE ( 'NONE', *, *, #278, .T. ) ;
#511 = VECTOR ( 'NONE', #332, 1000.000000000000000 ) ;
#512 =( NAMED_UNIT ( * ) SI_UNIT ( $, .STERADIAN. ) SOLID_ANGLE_UNIT ( ) );
#513 = EDGE_CURVE ( 'NONE', #106, #397, #588, .T. ) ;
#514 = ORIENTED_EDGE ( 'NONE', *, *, #278, .F. ) ;
#515 = PLANE ( 'NONE',  #521 ) ;
#516 = DIRECTION ( 'NONE',  ( 0.000000000000000000, 0.000000000000000000, 1.000000000000000000 ) ) ;
#517 = CALENDAR_DATE ( 2026, 5, 9 ) ;
#518 = EDGE_CURVE ( 'NONE', #17, #449, #389, .T. ) ;
#519 = VERTEX_POINT ( 'NONE', #341 ) ;
#520 = EDGE_CURVE ( 'NONE', #496, #397, #46, .T. ) ;
#521 = AXIS2_PLACEMENT_3D ( 'NONE', #306, #10, #77 ) ;
#522 = LOCAL_TIME ( 14, 21, 40.00000000000000000, #564 ) ;
#523 = APPROVAL_PERSON_ORGANIZATION ( #143, #635, #582 ) ;
#524 = LINE ( 'NONE', #319, #384 ) ;
#525 = EDGE_LOOP ( 'NONE', ( #305, #578, #35, #601, #479, #71, #653, #567 ) ) ;
#526 = ORIENTED_EDGE ( 'NONE', *, *, #311, .F. ) ;
#527 = DIRECTION ( 'NONE',  ( -1.000000000000000000, 0.000000000000000000, 0.000000000000000000 ) ) ;
#528 = ORIENTED_EDGE ( 'NONE', *, *, #369, .F. ) ;
#529 = APPROVAL_DATE_TIME ( #568, #154 ) ;
#530 = DIRECTION ( 'NONE',  ( -0.000000000000000000, -0.000000000000000000, -1.000000000000000000 ) ) ;
#531 = ORIENTED_EDGE ( 'NONE', *, *, #626, .F. ) ;
#532 = DIRECTION ( 'NONE',  ( -1.000000000000000000, 0.000000000000000000, 0.000000000000000000 ) ) ;
#533 = DIRECTION ( 'NONE',  ( 1.000000000000000000, 0.000000000000000000, 0.000000000000000000 ) ) ;
#534 = ORIENTED_EDGE ( 'NONE', *, *, #255, .T. ) ;
#535 = DIRECTION ( 'NONE',  ( 1.000000000000000000, 0.000000000000000000, 0.000000000000000000 ) ) ;
#536 = DIRECTION ( 'NONE',  ( -0.000000000000000000, -0.000000000000000000, -1.000000000000000000 ) ) ;
#537 = DIRECTION ( 'NONE',  ( -1.000000000000000000, 0.000000000000000000, 0.000000000000000000 ) ) ;
#538 = CARTESIAN_POINT ( 'NONE',  ( -32.79999999999999716, 36.00000000000000711, 500.0000000000000000 ) ) ;
#539 = VECTOR ( 'NONE', #642, 1000.000000000000000 ) ;
#540 = CARTESIAN_POINT ( 'NONE',  ( 40.00000000000000711, 32.79999999999998295, 500.0000000000000000 ) ) ;
#541 = EDGE_CURVE ( 'NONE', #454, #562, #298, .T. ) ;
#542 = CARTESIAN_POINT ( 'NONE',  ( -32.79999999999999716, 36.00000000000000711, 0.000000000000000000 ) ) ;
#543 = CARTESIAN_POINT ( 'NONE',  ( -32.79999999999999716, -36.00000000000000711, 0.000000000000000000 ) ) ;
#544 = CALENDAR_DATE ( 2026, 5, 9 ) ;
#545 = CARTESIAN_POINT ( 'NONE',  ( 40.00000000000000711, 32.79999999999998295, 500.0000000000000000 ) ) ;
#546 = DIRECTION ( 'NONE',  ( 0.000000000000000000, 0.000000000000000000, 1.000000000000000000 ) ) ;
#547 = DIRECTION ( 'NONE',  ( 0.000000000000000000, 1.000000000000000000, 0.000000000000000000 ) ) ;
#548 = FACE_OUTER_BOUND ( 'NONE', #413, .T. ) ;
#549 = EDGE_CURVE ( 'NONE', #141, #594, #619, .T. ) ;
#550 = CIRCLE ( 'NONE', #631, 7.200000000000011724 ) ;
#551 = DIRECTION ( 'NONE',  ( 1.000000000000000000, 0.000000000000000000, 0.000000000000000000 ) ) ;
#552 = ORIENTED_EDGE ( 'NONE', *, *, #177, .T. ) ;
#553 = EDGE_CURVE ( 'NONE', #359, #519, #99, .T. ) ;
#554 = ORIENTED_EDGE ( 'NONE', *, *, #182, .F. ) ;
#555 = PLANE ( 'NONE',  #101 ) ;
#556 = ORIENTED_EDGE ( 'NONE', *, *, #466, .F. ) ;
#557 = VERTEX_POINT ( 'NONE', #290 ) ;
#558 = ORGANIZATION ( 'UNSPECIFIED', 'UNSPECIFIED', '' ) ;
#559 = VECTOR ( 'NONE', #566, 1000.000000000000000 ) ;
#560 = EDGE_CURVE ( 'NONE', #410, #502, #88, .T. ) ;
#561 = VERTEX_POINT ( 'NONE', #328 ) ;
#562 = VERTEX_POINT ( 'NONE', #283 ) ;
#563 = APPROVAL_STATUS ( 'not_yet_approved' ) ;
#564 = COORDINATED_UNIVERSAL_TIME_OFFSET ( 5, 0, .AHEAD. ) ;
#565 = ORIENTED_EDGE ( 'NONE', *, *, #579, .F. ) ;
#566 = DIRECTION ( 'NONE',  ( -0.000000000000000000, -1.000000000000000000, -0.000000000000000000 ) ) ;
#567 = ORIENTED_EDGE ( 'NONE', *, *, #626, .T. ) ;
#568 = DATE_AND_TIME ( #28, #18 ) ;
#569 = AXIS2_PLACEMENT_3D ( 'NONE', #337, #52, #488 ) ;
#570 = VERTEX_POINT ( 'NONE', #379 ) ;
#571 = DIRECTION ( 'NONE',  ( -0.000000000000000000, -0.000000000000000000, -1.000000000000000000 ) ) ;
#572 = ORIENTED_EDGE ( 'NONE', *, *, #466, .T. ) ;
#573 = DIRECTION ( 'NONE',  ( -0.000000000000000000, -0.000000000000000000, -1.000000000000000000 ) ) ;
#574 = DIRECTION ( 'NONE',  ( 1.000000000000000000, 0.000000000000000000, 0.000000000000000000 ) ) ;
#575 = VERTEX_POINT ( 'NONE', #293 ) ;
#576 = EDGE_CURVE ( 'NONE', #364, #84, #627, .T. ) ;
#577 = CARTESIAN_POINT ( 'NONE',  ( -40.00000000000000000, -32.79999999999998295, 500.0000000000000000 ) ) ;
#578 = ORIENTED_EDGE ( 'NONE', *, *, #73, .T. ) ;
#579 = EDGE_CURVE ( 'NONE', #594, #368, #415, .T. ) ;
#580 = LINE ( 'NONE', #538, #116 ) ;
#581 = FACE_OUTER_BOUND ( 'NONE', #78, .T. ) ;
#582 = APPROVAL_ROLE ( '' ) ;
#583 = APPROVAL_PERSON_ORGANIZATION ( #408, #154, #129 ) ;
#584 = CARTESIAN_POINT ( 'NONE',  ( 32.79999999999999716, 39.99999999999999289, 0.000000000000000000 ) ) ;
#585 = PERSON_AND_ORGANIZATION ( #460, #558 ) ;
#586 = CIRCLE ( 'NONE', #33, 7.200000000000011724 ) ;
#587 = DIRECTION ( 'NONE',  ( 1.000000000000000000, 0.000000000000000000, 0.000000000000000000 ) ) ;
#588 = LINE ( 'NONE', #197, #208 ) ;
#589 = CARTESIAN_POINT ( 'NONE',  ( -32.79999999999999716, -39.99999999999999289, 0.000000000000000000 ) ) ;
#590 = PERSON_AND_ORGANIZATION_ROLE ( 'design_supplier' ) ;
#591 = DIRECTION ( 'NONE',  ( 0.000000000000000000, 0.000000000000000000, 1.000000000000000000 ) ) ;
#592 = VECTOR ( 'NONE', #532, 1000.000000000000000 ) ;
#593 = AXIS2_PLACEMENT_3D ( 'NONE', #96, #334, #574 ) ;
#594 = VERTEX_POINT ( 'NONE', #422 ) ;
#595 = DIRECTION ( 'NONE',  ( 0.000000000000000000, 0.000000000000000000, 1.000000000000000000 ) ) ;
#596 = VECTOR ( 'NONE', #605, 1000.000000000000000 ) ;
#597 = FACE_OUTER_BOUND ( 'NONE', #131, .T. ) ;
#598 = DIRECTION ( 'NONE',  ( -0.000000000000000000, -0.000000000000000000, -1.000000000000000000 ) ) ;
#599 = ADVANCED_FACE ( 'NONE', ( #428 ), #181, .F. ) ;
#600 = ORIENTED_EDGE ( 'NONE', *, *, #70, .T. ) ;
#601 = ORIENTED_EDGE ( 'NONE', *, *, #576, .T. ) ;
#602 = DIRECTION ( 'NONE',  ( 0.000000000000000000, 0.000000000000000000, 1.000000000000000000 ) ) ;
#603 = APPROVAL ( #79, 'UNSPECIFIED' ) ;
#604 = EDGE_LOOP ( 'NONE', ( #405, #330, #528, #13 ) ) ;
#605 = DIRECTION ( 'NONE',  ( -0.000000000000000000, 1.000000000000000000, -0.000000000000000000 ) ) ;
#606 = DIRECTION ( 'NONE',  ( 0.000000000000000000, 1.000000000000000000, 0.000000000000000000 ) ) ;
#607 = EDGE_LOOP ( 'NONE', ( #204, #288, #119, #128 ) ) ;
#608 = APPROVAL_ROLE ( '' ) ;
#609 = FACE_OUTER_BOUND ( 'NONE', #401, .T. ) ;
#610 = EDGE_CURVE ( 'NONE', #368, #168, #480, .T. ) ;
#611 = VERTEX_POINT ( 'NONE', #630 ) ;
#612 = CARTESIAN_POINT ( 'NONE',  ( 32.79999999999999716, -36.00000000000000711, 500.0000000000000000 ) ) ;
#613 = CARTESIAN_POINT ( 'NONE',  ( -40.00000000000000711, 32.79999999999998295, 0.000000000000000000 ) ) ;
#614 = AXIS2_PLACEMENT_3D ( 'NONE', #210, #598, #246 ) ;
#615 = ORIENTED_EDGE ( 'NONE', *, *, #620, .T. ) ;
#616 = ORIENTED_EDGE ( 'NONE', *, *, #324, .F. ) ;
#617 = DATE_AND_TIME ( #471, #236 ) ;
#618 = DIRECTION ( 'NONE',  ( 1.000000000000000000, 0.000000000000000000, 0.000000000000000000 ) ) ;
#619 = CIRCLE ( 'NONE', #593, 3.200000000000011724 ) ;
#620 = EDGE_CURVE ( 'NONE', #325, #418, #185, .T. ) ;
#621 = CARTESIAN_POINT ( 'NONE',  ( -32.79999999999999716, -39.99999999999999289, 500.0000000000000000 ) ) ;
#622 = CIRCLE ( 'NONE', #357, 7.200000000000011724 ) ;
#623 = ORIENTED_EDGE ( 'NONE', *, *, #560, .F. ) ;
#624 = COORDINATED_UNIVERSAL_TIME_OFFSET ( 5, 0, .AHEAD. ) ;
#625 = ORIENTED_EDGE ( 'NONE', *, *, #437, .T. ) ;
#626 = EDGE_CURVE ( 'NONE', #397, #402, #524, .T. ) ;
#627 = LINE ( 'NONE', #477, #165 ) ;
#628 = ORIENTED_EDGE ( 'NONE', *, *, #134, .F. ) ;
#629 = CARTESIAN_POINT ( 'NONE',  ( 32.79999999999999716, -36.00000000000000711, 0.000000000000000000 ) ) ;
#630 = CARTESIAN_POINT ( 'NONE',  ( 36.00000000000000711, 32.79999999999999716, 500.0000000000000000 ) ) ;
#631 = AXIS2_PLACEMENT_3D ( 'NONE', #105, #497, #58 ) ;
#632 = LINE ( 'NONE', #281, #206 ) ;
#633 = PLANE ( 'NONE',  #194 ) ;
#634 = ADVANCED_FACE ( 'NONE', ( #26 ), #62, .T. ) ;
#635 = APPROVAL ( #4, 'UNSPECIFIED' ) ;
#636 = DIRECTION ( 'NONE',  ( 0.000000000000000000, -1.000000000000000000, 0.000000000000000000 ) ) ;
#637 = DIRECTION ( 'NONE',  ( 1.000000000000000000, 0.000000000000000000, 0.000000000000000000 ) ) ;
#638 = ADVANCED_FACE ( 'NONE', ( #597 ), #264, .T. ) ;
#639 = DIRECTION ( 'NONE',  ( 0.000000000000000000, 0.000000000000000000, 1.000000000000000000 ) ) ;
#640 = LINE ( 'NONE', #421, #148 ) ;
#641 = DIRECTION ( 'NONE',  ( 1.000000000000000000, 0.000000000000000000, 0.000000000000000000 ) ) ;
#642 = DIRECTION ( 'NONE',  ( -0.000000000000000000, 1.000000000000000000, -0.000000000000000000 ) ) ;
#643 = VECTOR ( 'NONE', #240, 1000.000000000000000 ) ;
#644 = CARTESIAN_POINT ( 'NONE',  ( -40.00000000000000000, -32.79999999999998295, 0.000000000000000000 ) ) ;
#645 = VECTOR ( 'NONE', #74, 1000.000000000000000 ) ;
#646 = LINE ( 'NONE', #446, #508 ) ;
#647 = DIRECTION ( 'NONE',  ( 0.000000000000000000, 0.000000000000000000, 1.000000000000000000 ) ) ;
#648 = FACE_OUTER_BOUND ( 'NONE', #80, .T. ) ;
#649 = APPROVAL_DATE_TIME ( #617, #603 ) ;
#650 = VECTOR ( 'NONE', #91, 1000.000000000000000 ) ;
#651 = PLANE ( 'NONE',  #34 ) ;
#652 = CARTESIAN_POINT ( 'NONE',  ( 32.79999999999999716, 36.00000000000000711, 0.000000000000000000 ) ) ;
#653 = ORIENTED_EDGE ( 'NONE', *, *, #520, .T. ) ;
ENDSEC;
END-ISO-10303-21;
